<?xml version="1.0" encoding="utf-8"?>
<!-- Generator: Adobe Illustrator 24.0.1, SVG Export Plug-In . SVG Version: 6.00 Build 0)  -->
<svg version="1.1" id="Layer_1" xmlns="http://www.w3.org/2000/svg" xmlns:xlink="http://www.w3.org/1999/xlink" x="0px" y="0px"
	 viewBox="0 0 256 120" style="enable-background:new 0 0 256 120;" xml:space="preserve">
<style type="text/css">
	.st0{fill:#FFFFFF;}
	.st1{fill:none;}
</style>
<g id="INNO">
	<g id="XMLID_4_">
		<g>
			<path class="st0" d="M223.5,70.4V30.2c0-2.8-2.3-5-5-5h-10.1c-2.8,0-5,2.3-5,5v40.2c0,2.8,2.3,5,5,5h10.1
				C221.3,75.4,223.5,73.2,223.5,70.4z M228.6,5c8.3,0,15.1,6.8,15.1,15.1v60.3c0,8.3-6.8,15.1-15.1,15.1h-30.2
				c-8.3,0-15.1-6.8-15.1-15.1V5H228.6z"/>
			<path class="st0" d="M158.2,5c8.3,0,15.1,6.8,15.1,15.1v75.4h-20.1V30.2c0-2.8-2.3-5-5-5H133v70.4h-20.1V5H158.2z"/>
			<path class="st0" d="M82.7,95.5V30.2c0-2.8-2.3-5-5-5H62.6v70.4H42.5V5h45.3c8.3,0,15.1,6.8,15.1,15.1v75.4L82.7,95.5L82.7,95.5z
				"/>
			<path class="st0" d="M27.4,95.5c-8.3,0-15.1-6.8-15.1-15.1V35.2h20.1v40.2v20.1H27.4z"/>
			<path class="st0" d="M32.5,5v20.1H12.4v-5C12.4,11.8,19.1,5,27.4,5C27.4,5,32.5,5,32.5,5z"/>
		</g>
	</g>
</g>
<g id="CREATIVITY">
	<g id="XMLID_1_">
		<g>
			<polygon class="st0" points="136.6,111.7 136.6,115.6 135.5,115.6 135.5,111.7 132.4,105.6 133.8,105.6 136,110.5 138.3,105.6 
				139.6,105.6 			"/>
			<polygon class="st0" points="124.1,106.7 124.1,115.6 123.1,115.6 123.1,106.7 120.4,106.7 120.4,105.6 126.8,105.6 126.8,106.7 
							"/>
			<rect x="112.9" y="105.6" class="st0" width="1" height="10.1"/>
			<polygon class="st0" points="106.2,105.6 103.4,115.6 102.2,115.6 99.4,105.6 100.5,105.6 102.9,114.1 105.1,105.6 			"/>
			<rect x="91.8" y="105.6" class="st0" width="1.1" height="10.1"/>
			<polygon class="st0" points="82.5,106.7 82.5,115.6 81.4,115.6 81.4,106.7 78.8,106.7 78.8,105.6 85.1,105.6 85.1,106.7 			"/>
			<path class="st0" d="M70.7,111.6l-1.1-4.4l-1.3,4.4H70.7z M70.2,105.6l2.8,10.1h-1.1l-0.8-3H68l-0.9,3H66l2.9-10.1H70.2z"/>
			<polygon class="st0" points="59.7,105.6 59.7,106.7 55.1,106.7 55.1,109.9 59.5,109.9 59.5,111 55.1,111 55.1,114.5 59.9,114.5 
				59.9,115.6 54.1,115.6 54.1,105.6 			"/>
			<path class="st0" d="M45.6,107.2L45.6,107.2l-0.9-0.5h-0.2h-2.7v3.5h2.7l0.8-0.2l0.5-0.7l0.1-1L45.6,107.2z M40.8,105.6h3.7
				l1.1,0.1l0.7,0.4l0.2,0.2l0.4,0.9l0.1,1.2l-0.2,1.1l-0.5,0.9l-0.3,0.3l0.7,0.8l0.2,0.9v1l0.1,1.1l0.4,0.9v0.3H46l-0.2-0.9l0-1.1
				v-0.5l-0.2-1.2l-0.5-0.6l-0.5-0.1h-2.7v4.3h-1.1L40.8,105.6L40.8,105.6z"/>
			<polygon class="st0" points="29.6,106.8 28.9,107.4 28.7,107.7 28.3,108.6 28.1,109.7 28.2,112 28.4,113 28.7,113.7 29.4,114.4 
				30.2,114.8 30.6,114.8 31.3,114.6 32,114.2 32.5,113.3 32.8,112.1 32.9,112 34,112 33.6,113.2 33.2,114.2 32.7,115 32.1,115.5 
				31.3,115.9 30.6,116 29.6,115.8 28.8,115.4 28.1,114.7 28,114.5 27.5,113.6 27.2,112.6 27,111.5 27,110.7 27.1,109.5 27.3,108.4 
				27.7,107.4 27.9,107 28.5,106.2 29.2,105.7 30.1,105.4 30.6,105.4 31.5,105.6 32.3,106.1 32.5,106.2 33.1,107 33.6,108 
				33.8,108.7 32.7,108.7 32.2,107.6 31.6,106.9 30.8,106.6 30.5,106.6 			"/>
		</g>
	</g>
</g>
<g id="AT_WORK">
	<g id="POLYLINE_2_">
		<g id="XMLID_2_">
			<g>
				<polygon class="st0" points="166.5,106.7 163.9,106.7 163.9,105.6 170.2,105.6 170.2,106.7 167.5,106.7 167.5,115.6 
					166.5,115.6 				"/>
				<path class="st0" d="M158.8,111.6l-1.2-4.4l-1.3,4.4H158.8z M158.3,105.6l2.8,10.1h-1.1l-0.8-3H156l-0.9,3h-1.1l2.9-10.1H158.3z
					"/>
			</g>
		</g>
	</g>
	<g id="LWPOLYLINE_10_">
		<g id="XMLID_3_">
			<g>
				<polygon class="st0" points="230.1,109.6 233.6,115.6 232.2,115.6 229.3,110.6 228,112.1 228,115.6 227,115.6 227,105.6 
					228,105.6 228,110.6 232,105.6 233.5,105.6 				"/>
				<path class="st0" d="M219.3,108.3L219.3,108.3l-0.2-0.9l-0.2-0.3l-0.6-0.3l-0.7-0.1H215v3.3h2.3l1.1-0.2l0.6-0.5l0-0.1
					L219.3,108.3z M219.6,112.9l1.4,2.7h-1.3l-1.1-2.1l-0.5-0.9l-0.3-0.5l-0.5-0.7l-0.5-0.3l-0.6-0.1H215v4.5h-1.1v-10.1l4.4,0.1
					l0.7,0.2l0.1,0l0.6,0.5l0.3,0.5l0.3,0.8l0,0.6l-0.1,0.9l-0.4,0.8l-0.1,0.1l-0.5,0.5l-0.7,0.3l-0.5,0.1l0.7,0.5l0.5,0.6
					L219.6,112.9z"/>
				<path class="st0" d="M204.3,115.8l-0.5,0l-0.8-0.1l-0.7-0.3l-0.5-0.3l-1.1-1.3l-0.3-0.6l-0.3-0.9l-0.2-0.9l0-0.7l0-1.1l0.2-0.9
					l0.2-0.8l0.4-0.7l0.3-0.4l0.6-0.6l0.6-0.4l0.7-0.3l0.8-0.1h0.2l0.8,0.1l0.7,0.3l0.5,0.3l0.6,0.6l0.5,0.7l0.3,0.6l0.3,0.8
					l0.1,0.9l0.1,1l-0.1,1l-0.2,0.9l-0.3,0.8l0,0l-0.4,0.8l-0.5,0.7l-0.4,0.4l-0.7,0.4L204.3,115.8z M204.5,106.7l-0.7-0.1h0
					l-0.7,0.1l-0.7,0.3l-0.5,0.5l-0.4,0.6l-0.3,0.8l-0.1,1l0,0.9l0.1,1l0.2,0.9l0.3,0.7l0.2,0.2l0.6,0.6l0.6,0.3l0.7,0.1l0.7-0.1
					l0.7-0.3l0.6-0.6l0.4-0.7l0.3-0.8l0.1-1l0-0.5l-0.1-1l-0.2-0.9l-0.1-0.3l-0.4-0.8l-0.5-0.6l0,0L204.5,106.7z"/>
				<polygon class="st0" points="191.3,112.6 191.5,113.5 191.6,114.2 191.7,113.4 191.9,112.4 192,112 193.2,105.6 194.3,105.6 
					192.1,115.6 191.1,115.6 189.4,108 189.1,106.9 189.1,106.8 188.9,107.8 188.9,108 187.2,115.6 186.1,115.6 184,105.6 
					185.1,105.6 186.3,112.2 186.4,113.1 186.6,114 186.6,114.2 186.9,113 187,112.4 188.5,105.6 189.8,105.6 190.9,110.7 
					191.1,111.6 				"/>
			</g>
			<g>
				<polygon class="st1" points="189.1,106.8 189.1,106.9 189.4,108 191.1,115.6 192.1,115.6 194.3,105.6 193.2,105.6 192,112 
					191.9,112.4 191.7,113.4 191.6,114.2 191.5,113.5 191.3,112.6 191.1,111.6 190.9,110.7 189.8,105.6 188.5,105.6 187,112.4 
					186.9,113 186.6,114.2 186.6,114 186.4,113.1 186.3,112.2 185.1,105.6 184,105.6 186.1,115.6 187.2,115.6 188.9,108 
					188.9,107.8 				"/>
				<polygon class="st1" points="203.8,105.4 203.6,105.4 202.8,105.5 202.2,105.8 201.6,106.2 201,106.8 200.7,107.2 200.4,107.9 
					200.1,108.8 200,109.7 199.9,110.8 199.9,111.5 200.1,112.4 200.4,113.3 200.6,113.8 201.7,115.1 202.3,115.5 203,115.7 
					203.8,115.8 204.3,115.8 205,115.6 205.7,115.2 206.2,114.8 206.7,114.2 207.1,113.4 207.1,113.3 207.4,112.5 207.5,111.6 
					207.6,110.6 207.5,109.7 207.4,108.8 207.1,107.9 206.9,107.3 206.4,106.6 205.8,106.1 205.3,105.7 204.5,105.5 				"/>
				<polygon class="st1" points="203.8,106.6 203.8,106.6 204.5,106.7 205.2,107.1 205.2,107.1 205.8,107.7 206.2,108.5 
					206.3,108.8 206.4,109.6 206.5,110.6 206.5,111.1 206.4,112.1 206.1,112.9 205.7,113.6 205.2,114.2 204.5,114.6 203.7,114.7 
					203,114.6 202.4,114.2 201.8,113.6 201.6,113.4 201.3,112.7 201.1,111.8 201,110.8 201,109.9 201.2,108.9 201.5,108.1 
					201.8,107.5 202.4,107 203,106.7 				"/>
				<polygon class="st1" points="217.3,110 218.4,109.8 219,109.3 219.1,109.2 219.3,108.3 219.3,108.3 219.1,107.5 218.9,107.2 
					218.3,106.8 217.5,106.7 215,106.7 215,110 				"/>
				<polygon class="st1" points="219.8,106.3 219.2,105.8 219,105.8 218.4,105.6 213.9,105.6 213.9,115.6 215,115.6 215,111.2 
					216.2,111.2 216.8,111.2 217.3,111.5 217.8,112.2 218.1,112.7 218.6,113.5 219.7,115.6 221,115.6 219.6,112.9 219.2,112.2 
					218.7,111.6 218.1,111.1 218.6,111 219.3,110.6 219.8,110.1 219.9,110 220.3,109.3 220.4,108.3 220.3,107.7 220,106.8 				"/>
			</g>
		</g>
	</g>
</g>
</svg>
