<?xml version="1.0" encoding="utf-8"?>
<!-- Generator: Adobe Illustrator 24.0.1, SVG Export Plug-In . SVG Version: 6.00 Build 0)  -->
<svg version="1.1" id="Layer_1" xmlns="http://www.w3.org/2000/svg" xmlns:xlink="http://www.w3.org/1999/xlink" x="0px" y="0px"
	 viewBox="0 0 400 120" style="enable-background:new 0 0 400 120;" xml:space="preserve">
<style type="text/css">
	.st0{fill:#D32F2F;}
	.st1{fill:none;stroke:#CC6666;stroke-width:0;stroke-linecap:round;stroke-linejoin:round;stroke-miterlimit:10;}
</style>
<g id="INNO">
	<g id="XMLID_4_">
		<g>
			<path class="st0" d="M295.83,70.07V29.85c0-2.78-2.25-5.03-5.03-5.03h-10.06c-2.78,0-5.03,2.25-5.03,5.03v40.23
				c0,2.78,2.25,5.03,5.03,5.03h10.06C293.58,75.1,295.83,72.85,295.83,70.07z M300.86,4.7c8.33,0,15.08,6.76,15.08,15.08v60.34
				c0,8.33-6.76,15.08-15.08,15.08h-30.17c-8.33,0-15.08-6.76-15.08-15.08V4.7H300.86z"/>
			<path class="st0" d="M230.46,4.7c8.33,0,15.08,6.76,15.08,15.08v75.42h-20.11V29.85c0-2.78-2.25-5.03-5.03-5.03h-15.08v70.39
				h-20.11V4.7H230.46z"/>
			<path class="st0" d="M155.04,95.21V29.85c0-2.78-2.25-5.03-5.03-5.03h-15.08v70.39h-20.11V4.7h45.25
				c8.33,0,15.08,6.76,15.08,15.08v75.42H155.04z"/>
			<path class="st0" d="M99.73,95.21c-8.33,0-15.08-6.76-15.08-15.08V34.87h20.11V75.1v20.11H99.73z"/>
			<path class="st0" d="M104.76,4.7v20.11H84.65v-5.03c0-8.33,6.76-15.08,15.08-15.08H104.76z"/>
		</g>
		<g>
		</g>
	</g>
</g>
<g id="CREATIVITY">
	<g id="XMLID_1_">
		<g>
			<polygon class="st0" points="208.86,111.4 208.86,115.32 207.82,115.32 207.82,111.4 204.74,105.27 206.05,105.27 208.34,110.16 
				210.63,105.27 211.88,105.27 			"/>
			<polygon class="st0" points="196.41,106.41 196.41,115.32 195.41,115.32 195.41,106.41 192.73,106.41 192.73,105.27 
				199.05,105.27 199.05,106.41 			"/>
			<rect x="185.21" y="105.27" class="st0" width="1.01" height="10.06"/>
			<polygon class="st0" points="178.51,105.27 175.68,115.32 174.53,115.32 171.72,105.27 172.8,105.27 175.15,113.8 177.41,105.27 
							"/>
			<rect x="164.05" y="105.27" class="st0" width="1.05" height="10.06"/>
			<polygon class="st0" points="154.76,106.41 154.76,115.32 153.69,115.32 153.69,106.41 151.06,106.41 151.06,105.27 
				157.4,105.27 157.4,106.41 			"/>
			<path class="st0" d="M143.01,111.26l-1.15-4.4l-1.33,4.4H143.01z M142.49,105.27l2.84,10.06h-1.15l-0.82-3.02h-3.06l-0.86,3.02
				h-1.11l2.92-10.06H142.49z"/>
			<polygon class="st0" points="131.95,105.27 131.95,106.41 127.41,106.41 127.41,109.57 131.81,109.57 131.81,110.72 
				127.41,110.72 127.41,114.18 132.15,114.18 132.15,115.32 126.4,115.32 126.4,105.27 			"/>
			<path class="st0" d="M117.93,106.9l-0.1-0.1l-0.8-0.38h-0.2h-2.67v3.46h2.67l0.8-0.24l0.48-0.72l0.1-0.97L117.93,106.9z
				 M113.09,105.27h3.7l1.05,0.14l0.72,0.44l0.18,0.18l0.38,0.91l0.14,1.15l-0.18,1.07l-0.52,0.86l-0.34,0.32l0.72,0.82l0.18,0.91
				v0.97l0.06,1.09l0.38,0.86v0.34h-1.25l-0.2-0.91l-0.04-1.11v-0.48l-0.2-1.15l-0.52-0.58l-0.52-0.08h-2.67v4.3h-1.07V105.27z"/>
			<polygon class="st0" points="101.94,106.47 101.22,107.08 101.02,107.42 100.64,108.33 100.4,109.43 100.46,111.68 
				100.74,112.73 101.02,113.35 101.7,114.12 102.51,114.46 102.85,114.52 103.61,114.32 104.28,113.84 104.76,112.97 
				105.14,111.82 105.18,111.64 106.25,111.64 105.91,112.89 105.52,113.9 105,114.66 104.38,115.22 103.61,115.57 102.85,115.67 
				101.88,115.53 101.12,115.08 100.4,114.42 100.26,114.18 99.77,113.31 99.49,112.31 99.31,111.16 99.31,110.4 99.35,109.15 
				99.59,108.04 99.97,107.08 100.15,106.7 100.78,105.93 101.54,105.41 102.41,105.13 102.85,105.13 103.75,105.27 104.56,105.75 
				104.8,105.93 105.42,106.7 105.87,107.7 106.05,108.39 105,108.39 104.52,107.32 103.9,106.62 103.13,106.27 102.79,106.27 			
				"/>
		</g>
		<g>
		</g>
	</g>
</g>
<g id="AT_WORK">
	<g id="POLYLINE_2_">
		<g id="XMLID_2_">
			<g>
				<polygon class="st0" points="238.81,106.41 236.18,106.41 236.18,105.27 242.47,105.27 242.47,106.41 239.84,106.41 
					239.84,115.32 238.81,115.32 				"/>
				<path class="st0" d="M231.09,111.24l-1.19-4.42l-1.31,4.42H231.09z M230.55,105.27l2.82,10.06h-1.15l-0.8-3h-3.1l-0.86,3h-1.09
					l2.9-10.06H230.55z"/>
			</g>
			<g>
			</g>
		</g>
	</g>
	<g id="LWPOLYLINE_10_">
		<g id="XMLID_3_">
			<g>
				<polygon class="st0" points="302.37,109.33 305.89,115.32 304.48,115.32 301.62,110.24 300.3,111.82 300.3,115.32 
					299.25,115.32 299.25,105.27 300.3,105.27 300.3,110.26 304.3,105.27 305.75,105.27 				"/>
				<path class="st0" d="M291.57,108.02V108l-0.2-0.86l-0.2-0.3l-0.58-0.34l-0.74-0.12h-2.53v3.34h2.27l1.15-0.2l0.6-0.52l0.02-0.08
					L291.57,108.02z M291.93,112.59l1.39,2.74h-1.33l-1.07-2.09l-0.48-0.88l-0.3-0.5l-0.52-0.66l-0.48-0.26l-0.6-0.06h-1.23v4.47
					h-1.07v-10.06l4.42,0.06l0.66,0.16l0.12,0.04l0.6,0.5l0.28,0.48l0.28,0.84l0.04,0.64l-0.1,0.95l-0.38,0.76l-0.06,0.12
					l-0.52,0.48l-0.7,0.32l-0.5,0.1l0.66,0.52l0.48,0.64L291.93,112.59z"/>
				<path class="st0" d="M276.6,115.47l-0.54,0.02l-0.76-0.06l-0.72-0.26l-0.54-0.34l-1.09-1.29l-0.28-0.58l-0.26-0.88l-0.16-0.93
					l-0.02-0.7l0.04-1.05l0.16-0.93l0.24-0.84l0.36-0.74l0.26-0.36l0.56-0.6l0.62-0.44l0.66-0.26l0.76-0.1h0.16l0.76,0.06l0.72,0.26
					l0.52,0.32l0.58,0.56l0.5,0.7l0.28,0.6l0.26,0.84l0.14,0.88l0.06,0.97l-0.06,0.97l-0.16,0.91l-0.26,0.84l-0.02,0.02l-0.42,0.78
					l-0.52,0.66l-0.44,0.38l-0.7,0.36L276.6,115.47z M276.82,106.37l-0.74-0.12h-0.02l-0.74,0.1l-0.66,0.34l-0.52,0.5l-0.38,0.62
					l-0.26,0.76l-0.14,0.99l-0.04,0.86l0.06,1.03l0.22,0.88l0.34,0.74l0.16,0.22l0.56,0.58l0.64,0.34l0.74,0.1l0.74-0.1l0.68-0.34
					l0.56-0.6l0.36-0.66l0.26-0.82l0.12-0.99l0.02-0.52l-0.06-0.99l-0.18-0.86l-0.08-0.28l-0.4-0.8l-0.54-0.6l-0.02-0.02
					L276.82,106.37z"/>
				<polygon class="st0" points="263.61,112.27 263.77,113.17 263.85,113.92 263.99,113.05 264.17,112.13 264.25,111.72 
					265.52,105.27 266.59,105.27 264.39,115.32 263.35,115.32 261.66,107.66 261.44,106.62 261.4,106.5 261.22,107.44 
					261.18,107.66 259.47,115.32 258.38,115.32 256.25,105.27 257.36,105.27 258.56,111.84 258.74,112.79 258.86,113.72 
					258.9,113.92 259.15,112.67 259.27,112.07 260.79,105.27 262.08,105.27 263.23,110.36 263.43,111.32 				"/>
			</g>
			<g>
				<polygon class="st1" points="305.75,105.27 304.3,105.27 300.3,110.26 300.3,105.27 299.25,105.27 299.25,115.32 300.3,115.32 
					300.3,111.82 301.62,110.24 304.48,115.32 305.89,115.32 302.37,109.33 				"/>
				<polygon class="st1" points="261.4,106.5 261.44,106.62 261.66,107.66 263.35,115.32 264.39,115.32 266.59,105.27 
					265.52,105.27 264.25,111.72 264.17,112.13 263.99,113.05 263.85,113.92 263.77,113.17 263.61,112.27 263.43,111.32 
					263.23,110.36 262.08,105.27 260.79,105.27 259.27,112.07 259.15,112.67 258.9,113.92 258.86,113.72 258.74,112.79 
					258.56,111.84 257.36,105.27 256.25,105.27 258.38,115.32 259.47,115.32 261.18,107.66 261.22,107.44 				"/>
				<polygon class="st1" points="276.06,105.11 275.9,105.11 275.13,105.21 274.47,105.47 273.85,105.91 273.28,106.52 
					273.02,106.88 272.66,107.62 272.42,108.47 272.26,109.39 272.22,110.44 272.24,111.14 272.4,112.07 272.66,112.95 
					272.94,113.53 274.03,114.82 274.57,115.16 275.3,115.43 276.06,115.49 276.6,115.47 277.31,115.24 278.01,114.88 278.45,114.5 
					278.98,113.84 279.4,113.05 279.42,113.03 279.68,112.19 279.84,111.28 279.9,110.32 279.84,109.35 279.7,108.47 279.44,107.62 
					279.16,107.02 278.65,106.31 278.07,105.75 277.55,105.43 276.82,105.17 				"/>
				<polygon class="st1" points="276.06,106.25 276.08,106.25 276.82,106.37 277.51,106.74 277.53,106.76 278.07,107.36 
					278.47,108.16 278.55,108.45 278.74,109.31 278.8,110.3 278.78,110.82 278.65,111.8 278.39,112.63 278.03,113.29 277.47,113.9 
					276.78,114.24 276.04,114.34 275.3,114.24 274.65,113.9 274.09,113.31 273.93,113.09 273.59,112.35 273.37,111.46 273.3,110.44 
					273.34,109.57 273.49,108.59 273.75,107.82 274.13,107.2 274.65,106.7 275.32,106.35 				"/>
				<polygon class="st1" points="289.58,109.71 290.72,109.51 291.33,108.99 291.35,108.91 291.57,108.02 291.57,108 291.37,107.14 
					291.16,106.84 290.58,106.5 289.84,106.37 287.3,106.37 287.3,109.71 				"/>
				<polygon class="st1" points="292.05,106.03 291.45,105.53 291.33,105.49 290.66,105.33 286.24,105.27 286.24,115.32 
					287.3,115.32 287.3,110.86 288.53,110.86 289.13,110.92 289.62,111.18 290.14,111.84 290.44,112.35 290.92,113.23 
					291.99,115.32 293.32,115.32 291.93,112.59 291.53,111.91 291.04,111.26 290.38,110.74 290.88,110.64 291.59,110.32 
					292.11,109.83 292.17,109.71 292.55,108.95 292.65,108 292.61,107.36 292.33,106.52 				"/>
			</g>
		</g>
	</g>
</g>
</svg>
