<?xml version="1.0" encoding="utf-8"?>
<!-- Generator: Adobe Illustrator 24.0.1, SVG Export Plug-In . SVG Version: 6.00 Build 0)  -->
<svg version="1.1" id="Layer_1" xmlns="http://www.w3.org/2000/svg" xmlns:xlink="http://www.w3.org/1999/xlink" x="0px" y="0px"
	 viewBox="0 0 256 120" style="enable-background:new 0 0 256 120;" xml:space="preserve">
<style type="text/css">
	.st0{fill:#FFFFFF;}
</style>
<g id="INNO">
	<g id="XMLID_4_">
		<g>
			<path class="st0" d="M223.8,70.1V29.9c0-2.8-2.3-5-5-5h-10.1c-2.8,0-5,2.3-5,5v40.2c0,2.8,2.3,5,5,5h10.1
				C221.6,75.1,223.8,72.8,223.8,70.1z M228.9,4.7c8.3,0,15.1,6.8,15.1,15.1v60.3c0,8.3-6.8,15.1-15.1,15.1h-30.2
				c-8.3,0-15.1-6.8-15.1-15.1V4.7H228.9z"/>
			<path class="st0" d="M158.5,4.7c8.3,0,15.1,6.8,15.1,15.1v75.4h-20.1V29.9c0-2.8-2.3-5-5-5h-15.1v70.4h-20.1V4.7H158.5z"/>
			<path class="st0" d="M83,95.2V29.9c0-2.8-2.3-5-5-5H62.9v70.4H42.8V4.7h45.3c8.3,0,15.1,6.8,15.1,15.1v75.4L83,95.2L83,95.2z"/>
			<path class="st0" d="M27.7,95.2c-8.3,0-15.1-6.8-15.1-15.1V34.9h20.1v40.2v20.1H27.7z"/>
			<path class="st0" d="M32.8,4.7v20.1H12.7v-5c0-8.3,6.8-15.1,15.1-15.1C27.7,4.7,32.8,4.7,32.8,4.7z"/>
		</g>
	</g>
</g>
<g id="CREATIVITY">
	<g id="XMLID_1_">
		<g>
			<polygon class="st0" points="136.9,111.4 136.9,115.3 135.8,115.3 135.8,111.4 132.7,105.3 134.1,105.3 136.3,110.2 138.6,105.3 
				139.9,105.3 			"/>
			<polygon class="st0" points="124.4,106.4 124.4,115.3 123.4,115.3 123.4,106.4 120.7,106.4 120.7,105.3 127.1,105.3 127.1,106.4 
							"/>
			<rect x="113.2" y="105.3" class="st0" width="1" height="10.1"/>
			<polygon class="st0" points="106.5,105.3 103.7,115.3 102.5,115.3 99.7,105.3 100.8,105.3 103.1,113.8 105.4,105.3 			"/>
			<rect x="92.1" y="105.3" class="st0" width="1.1" height="10.1"/>
			<polygon class="st0" points="82.8,106.4 82.8,115.3 81.7,115.3 81.7,106.4 79.1,106.4 79.1,105.3 85.4,105.3 85.4,106.4 			"/>
			<path class="st0" d="M71,111.3l-1.1-4.4l-1.3,4.4H71z M70.5,105.3l2.8,10.1h-1.1l-0.8-3h-3.1l-0.9,3h-1.1l2.9-10.1H70.5z"/>
			<polygon class="st0" points="59.9,105.3 59.9,106.4 55.4,106.4 55.4,109.6 59.8,109.6 59.8,110.7 55.4,110.7 55.4,114.2 
				60.1,114.2 60.1,115.3 54.4,115.3 54.4,105.3 			"/>
			<path class="st0" d="M45.9,106.9L45.9,106.9l-0.9-0.5h-0.2h-2.7v3.5h2.7l0.8-0.2l0.5-0.7l0.1-1L45.9,106.9z M41.1,105.3h3.7
				l1.1,0.1l0.7,0.4l0.2,0.2l0.4,0.9l0.1,1.2l-0.2,1.1l-0.5,0.9l-0.3,0.3l0.7,0.8l0.2,0.9v1l0.1,1.1l0.4,0.9v0.3h-1.3l-0.2-0.9
				l0-1.1v-0.5l-0.2-1.2l-0.5-0.6l-0.5-0.1h-2.7v4.3h-1.1L41.1,105.3L41.1,105.3z"/>
			<polygon class="st0" points="29.9,106.5 29.2,107.1 29,107.4 28.6,108.3 28.4,109.4 28.5,111.7 28.7,112.7 29,113.3 29.7,114.1 
				30.5,114.5 30.8,114.5 31.6,114.3 32.3,113.8 32.8,113 33.1,111.8 33.2,111.6 34.3,111.6 33.9,112.9 33.5,113.9 33,114.7 
				32.4,115.2 31.6,115.6 30.8,115.7 29.9,115.5 29.1,115.1 28.4,114.4 28.3,114.2 27.8,113.3 27.5,112.3 27.3,111.2 27.3,110.4 
				27.3,109.2 27.6,108 28,107.1 28.2,106.7 28.8,105.9 29.5,105.4 30.4,105.1 30.8,105.1 31.8,105.3 32.6,105.8 32.8,105.9 
				33.4,106.7 33.9,107.7 34.1,108.4 33,108.4 32.5,107.3 31.9,106.6 31.1,106.3 30.8,106.3 			"/>
		</g>
	</g>
</g>
<g id="AT_WORK">
	<g id="POLYLINE_2_">
		<g id="XMLID_2_">
			<g>
				<polygon class="st0" points="166.8,106.4 164.2,106.4 164.2,105.3 170.5,105.3 170.5,106.4 167.8,106.4 167.8,115.3 
					166.8,115.3 				"/>
				<path class="st0" d="M159.1,111.2l-1.2-4.4l-1.3,4.4H159.1z M158.6,105.3l2.8,10.1h-1.1l-0.8-3h-3.1l-0.9,3h-1.1l2.9-10.1H158.6
					z"/>
			</g>
		</g>
	</g>
	<g id="LWPOLYLINE_10_">
		<g id="XMLID_3_">
			<g>
				<polygon class="st0" points="230.4,109.3 233.9,115.3 232.5,115.3 229.6,110.2 228.3,111.8 228.3,115.3 227.3,115.3 
					227.3,105.3 228.3,105.3 228.3,110.3 232.3,105.3 233.8,105.3 				"/>
				<path class="st0" d="M219.6,108L219.6,108l-0.2-0.9l-0.2-0.3l-0.6-0.3l-0.7-0.1h-2.5v3.3h2.3l1.1-0.2l0.6-0.5l0-0.1L219.6,108z
					 M219.9,112.6l1.4,2.7H220l-1.1-2.1l-0.5-0.9l-0.3-0.5l-0.5-0.7l-0.5-0.3l-0.6-0.1h-1.2v4.5h-1.1v-10.1l4.4,0.1l0.7,0.2l0.1,0
					l0.6,0.5l0.3,0.5l0.3,0.8l0,0.6l-0.1,0.9l-0.4,0.8l-0.1,0.1l-0.5,0.5l-0.7,0.3l-0.5,0.1l0.7,0.5l0.5,0.6L219.9,112.6z"/>
				<path class="st0" d="M204.6,115.5l-0.5,0l-0.8-0.1l-0.7-0.3l-0.5-0.3l-1.1-1.3l-0.3-0.6l-0.3-0.9l-0.2-0.9l0-0.7l0-1.1l0.2-0.9
					l0.2-0.8l0.4-0.7l0.3-0.4l0.6-0.6l0.6-0.4l0.7-0.3l0.8-0.1h0.2l0.8,0.1l0.7,0.3l0.5,0.3l0.6,0.6l0.5,0.7l0.3,0.6l0.3,0.8
					l0.1,0.9l0.1,1l-0.1,1l-0.2,0.9l-0.3,0.8l0,0l-0.4,0.8l-0.5,0.7l-0.4,0.4l-0.7,0.4L204.6,115.5z M204.8,106.4l-0.7-0.1h0
					l-0.7,0.1l-0.7,0.3l-0.5,0.5l-0.4,0.6l-0.3,0.8l-0.1,1l0,0.9l0.1,1l0.2,0.9l0.3,0.7l0.2,0.2l0.6,0.6l0.6,0.3l0.7,0.1l0.7-0.1
					l0.7-0.3l0.6-0.6l0.4-0.7l0.3-0.8l0.1-1l0-0.5l-0.1-1l-0.2-0.9l-0.1-0.3l-0.4-0.8l-0.5-0.6l0,0L204.8,106.4z"/>
				<polygon class="st0" points="191.6,112.3 191.8,113.2 191.9,113.9 192,113.1 192.2,112.1 192.3,111.7 193.5,105.3 194.6,105.3 
					192.4,115.3 191.4,115.3 189.7,107.7 189.4,106.6 189.4,106.5 189.2,107.4 189.2,107.7 187.5,115.3 186.4,115.3 184.3,105.3 
					185.4,105.3 186.6,111.8 186.7,112.8 186.9,113.7 186.9,113.9 187.1,112.7 187.3,112.1 188.8,105.3 190.1,105.3 191.2,110.4 
					191.4,111.3 				"/>
			</g>
			<g>
				<polygon class="st0" points="233.8,105.3 232.3,105.3 228.3,110.3 228.3,105.3 227.3,105.3 227.3,115.3 228.3,115.3 
					228.3,111.8 229.6,110.2 232.5,115.3 233.9,115.3 230.4,109.3 				"/>
				<polygon class="st0" points="189.4,106.5 189.4,106.6 189.7,107.7 191.4,115.3 192.4,115.3 194.6,105.3 193.5,105.3 
					192.3,111.7 192.2,112.1 192,113.1 191.9,113.9 191.8,113.2 191.6,112.3 191.4,111.3 191.2,110.4 190.1,105.3 188.8,105.3 
					187.3,112.1 187.1,112.7 186.9,113.9 186.9,113.7 186.7,112.8 186.6,111.8 185.4,105.3 184.3,105.3 186.4,115.3 187.5,115.3 
					189.2,107.7 189.2,107.4 				"/>
				<polygon class="st0" points="204.1,105.1 203.9,105.1 203.1,105.2 202.5,105.5 201.9,105.9 201.3,106.5 201,106.9 200.7,107.6 
					200.4,108.5 200.3,109.4 200.2,110.4 200.2,111.1 200.4,112.1 200.7,112.9 200.9,113.5 202,114.8 202.6,115.2 203.3,115.4 
					204.1,115.5 204.6,115.5 205.3,115.2 206,114.9 206.5,114.5 207,113.8 207.4,113.1 207.4,113 207.7,112.2 207.8,111.3 
					207.9,110.3 207.8,109.3 207.7,108.5 207.4,107.6 207.2,107 206.6,106.3 206.1,105.8 205.5,105.4 204.8,105.2 				"/>
				<polygon class="st0" points="204.1,106.3 204.1,106.3 204.8,106.4 205.5,106.7 205.5,106.8 206.1,107.4 206.5,108.2 
					206.5,108.4 206.7,109.3 206.8,110.3 206.8,110.8 206.6,111.8 206.4,112.6 206,113.3 205.5,113.9 204.8,114.2 204,114.3 
					203.3,114.2 202.6,113.9 202.1,113.3 201.9,113.1 201.6,112.3 201.4,111.5 201.3,110.4 201.3,109.6 201.5,108.6 201.8,107.8 
					202.1,107.2 202.6,106.7 203.3,106.3 				"/>
				<polygon class="st0" points="217.6,109.7 218.7,109.5 219.3,109 219.4,108.9 219.6,108 219.6,108 219.4,107.1 219.2,106.8 
					218.6,106.5 217.8,106.4 215.3,106.4 215.3,109.7 				"/>
				<polygon class="st0" points="220,106 219.5,105.5 219.3,105.5 218.7,105.3 214.2,105.3 214.2,115.3 215.3,115.3 215.3,110.9 
					216.5,110.9 217.1,110.9 217.6,111.2 218.1,111.8 218.4,112.3 218.9,113.2 220,115.3 221.3,115.3 219.9,112.6 219.5,111.9 
					219,111.3 218.4,110.7 218.9,110.6 219.6,110.3 220.1,109.8 220.2,109.7 220.5,108.9 220.6,108 220.6,107.4 220.3,106.5 				"/>
			</g>
		</g>
	</g>
</g>
</svg>
